<mxfile host="app.diagrams.net" modified="2023-05-29T15:31:11.019Z" agent="Mozilla/5.0 (X11; Linux x86_64) AppleWebKit/537.36 (KHTML, like Gecko) Chrome/113.0.0.0 Safari/537.36" etag="bFc_pcfIxeStVournUK4" version="21.3.5" type="device">
  <diagram name="Page-1" id="Cyq8zCCDHSfshUwPt0yI">
    <mxGraphModel dx="1195" dy="698" grid="1" gridSize="10" guides="1" tooltips="1" connect="1" arrows="1" fold="1" page="1" pageScale="1" pageWidth="850" pageHeight="1100" math="0" shadow="0">
      <root>
        <mxCell id="0" />
        <mxCell id="1" parent="0" />
        <mxCell id="_mD5evdsi9IKHYTAy_Ms-1" value="&lt;font color=&quot;#080808&quot; style=&quot;font-size: 14px;&quot;&gt;&lt;b style=&quot;background-color: rgb(255, 255, 255);&quot;&gt;kernel_text&lt;/b&gt;&lt;/font&gt;" style="rounded=0;whiteSpace=wrap;html=1;fillStyle=hatch;fillColor=#030303;" parent="1" vertex="1">
          <mxGeometry x="220" y="460" width="120" height="30" as="geometry" />
        </mxCell>
        <mxCell id="_mD5evdsi9IKHYTAy_Ms-3" value="&lt;font color=&quot;#080808&quot; style=&quot;font-size: 14px;&quot;&gt;&lt;b style=&quot;background-color: rgb(255, 255, 255);&quot;&gt;kernel_rodata&lt;/b&gt;&lt;/font&gt;" style="rounded=0;whiteSpace=wrap;html=1;fillStyle=hatch;fillColor=#030303;" parent="1" vertex="1">
          <mxGeometry x="220" y="430" width="120" height="30" as="geometry" />
        </mxCell>
        <mxCell id="_mD5evdsi9IKHYTAy_Ms-4" value="&lt;font color=&quot;#080808&quot; style=&quot;font-size: 14px;&quot;&gt;&lt;b style=&quot;background-color: rgb(255, 255, 255);&quot;&gt;kernel_data&lt;/b&gt;&lt;/font&gt;" style="rounded=0;whiteSpace=wrap;html=1;fillStyle=hatch;fillColor=#030303;" parent="1" vertex="1">
          <mxGeometry x="220" y="400" width="120" height="30" as="geometry" />
        </mxCell>
        <mxCell id="_mD5evdsi9IKHYTAy_Ms-5" value="&lt;font color=&quot;#080808&quot; style=&quot;font-size: 14px;&quot;&gt;&lt;b style=&quot;background-color: rgb(255, 255, 255);&quot;&gt;kernel_bss&lt;/b&gt;&lt;/font&gt;" style="rounded=0;whiteSpace=wrap;html=1;fillStyle=hatch;fillColor=#030303;" parent="1" vertex="1">
          <mxGeometry x="220" y="370" width="120" height="30" as="geometry" />
        </mxCell>
        <mxCell id="_mD5evdsi9IKHYTAy_Ms-6" value="&lt;font color=&quot;#080808&quot; style=&quot;font-size: 14px;&quot;&gt;&lt;b style=&quot;background-color: rgb(255, 255, 255);&quot;&gt;user_text&lt;/b&gt;&lt;/font&gt;" style="rounded=0;whiteSpace=wrap;html=1;fillStyle=cross-hatch;fillColor=#030303;" parent="1" vertex="1">
          <mxGeometry x="220" y="340" width="120" height="30" as="geometry" />
        </mxCell>
        <mxCell id="_mD5evdsi9IKHYTAy_Ms-7" value="&lt;font color=&quot;#080808&quot; style=&quot;font-size: 14px;&quot;&gt;&lt;b style=&quot;background-color: rgb(255, 255, 255);&quot;&gt;user_rodata&lt;/b&gt;&lt;/font&gt;" style="rounded=0;whiteSpace=wrap;html=1;fillStyle=cross-hatch;fillColor=#030303;" parent="1" vertex="1">
          <mxGeometry x="220" y="310" width="120" height="30" as="geometry" />
        </mxCell>
        <mxCell id="_mD5evdsi9IKHYTAy_Ms-8" value="&lt;font color=&quot;#080808&quot; style=&quot;font-size: 14px;&quot;&gt;&lt;b style=&quot;background-color: rgb(255, 255, 255);&quot;&gt;user_data&lt;/b&gt;&lt;/font&gt;" style="rounded=0;whiteSpace=wrap;html=1;fillStyle=cross-hatch;fillColor=#030303;" parent="1" vertex="1">
          <mxGeometry x="220" y="280" width="120" height="30" as="geometry" />
        </mxCell>
        <mxCell id="_mD5evdsi9IKHYTAy_Ms-9" value="&lt;font color=&quot;#080808&quot; style=&quot;font-size: 14px;&quot;&gt;&lt;b style=&quot;background-color: rgb(255, 255, 255);&quot;&gt;user_bss&lt;/b&gt;&lt;/font&gt;" style="rounded=0;whiteSpace=wrap;html=1;fillStyle=cross-hatch;fillColor=#030303;" parent="1" vertex="1">
          <mxGeometry x="220" y="250" width="120" height="30" as="geometry" />
        </mxCell>
        <mxCell id="_mD5evdsi9IKHYTAy_Ms-15" value="" style="group" parent="1" vertex="1" connectable="0">
          <mxGeometry x="365" y="460" width="120" height="30" as="geometry" />
        </mxCell>
        <mxCell id="_mD5evdsi9IKHYTAy_Ms-10" value="" style="rounded=0;whiteSpace=wrap;html=1;fillStyle=hatch;fillColor=#030303;glass=0;shadow=0;" parent="_mD5evdsi9IKHYTAy_Ms-15" vertex="1">
          <mxGeometry width="60" height="30" as="geometry" />
        </mxCell>
        <mxCell id="_mD5evdsi9IKHYTAy_Ms-11" value="" style="rounded=0;whiteSpace=wrap;html=1;fillStyle=cross-hatch;fillColor=#030303;" parent="_mD5evdsi9IKHYTAy_Ms-15" vertex="1">
          <mxGeometry x="60" width="60" height="30" as="geometry" />
        </mxCell>
        <mxCell id="_mD5evdsi9IKHYTAy_Ms-12" value="&lt;b style=&quot;border-color: var(--border-color); color: rgb(8, 8, 8); font-family: Helvetica; font-size: 14px; font-style: normal; font-variant-ligatures: normal; font-variant-caps: normal; letter-spacing: normal; orphans: 2; text-align: center; text-indent: 0px; text-transform: none; widows: 2; word-spacing: 0px; -webkit-text-stroke-width: 0px; text-decoration-thickness: initial; text-decoration-style: initial; text-decoration-color: initial; background-color: rgb(255, 255, 255);&quot;&gt;text&lt;/b&gt;" style="text;html=1;strokeColor=none;fillColor=none;align=center;verticalAlign=middle;whiteSpace=wrap;rounded=0;" parent="_mD5evdsi9IKHYTAy_Ms-15" vertex="1">
          <mxGeometry x="30" width="60" height="30" as="geometry" />
        </mxCell>
        <mxCell id="_mD5evdsi9IKHYTAy_Ms-16" value="" style="group" parent="1" vertex="1" connectable="0">
          <mxGeometry x="365" y="430" width="120" height="30" as="geometry" />
        </mxCell>
        <mxCell id="_mD5evdsi9IKHYTAy_Ms-17" value="" style="rounded=0;whiteSpace=wrap;html=1;fillStyle=hatch;fillColor=#030303;glass=0;shadow=0;" parent="_mD5evdsi9IKHYTAy_Ms-16" vertex="1">
          <mxGeometry width="60" height="30" as="geometry" />
        </mxCell>
        <mxCell id="_mD5evdsi9IKHYTAy_Ms-18" value="" style="rounded=0;whiteSpace=wrap;html=1;fillStyle=cross-hatch;fillColor=#030303;" parent="_mD5evdsi9IKHYTAy_Ms-16" vertex="1">
          <mxGeometry x="60" width="60" height="30" as="geometry" />
        </mxCell>
        <mxCell id="_mD5evdsi9IKHYTAy_Ms-19" value="&lt;b style=&quot;border-color: var(--border-color); color: rgb(8, 8, 8); font-family: Helvetica; font-size: 14px; font-style: normal; font-variant-ligatures: normal; font-variant-caps: normal; letter-spacing: normal; orphans: 2; text-align: center; text-indent: 0px; text-transform: none; widows: 2; word-spacing: 0px; -webkit-text-stroke-width: 0px; text-decoration-thickness: initial; text-decoration-style: initial; text-decoration-color: initial; background-color: rgb(255, 255, 255);&quot;&gt;rodata&lt;/b&gt;" style="text;html=1;strokeColor=none;fillColor=none;align=center;verticalAlign=middle;whiteSpace=wrap;rounded=0;" parent="_mD5evdsi9IKHYTAy_Ms-16" vertex="1">
          <mxGeometry x="30" width="60" height="30" as="geometry" />
        </mxCell>
        <mxCell id="_mD5evdsi9IKHYTAy_Ms-20" value="" style="group" parent="_mD5evdsi9IKHYTAy_Ms-16" vertex="1" connectable="0">
          <mxGeometry y="-30" width="120" height="30" as="geometry" />
        </mxCell>
        <mxCell id="_mD5evdsi9IKHYTAy_Ms-21" value="" style="rounded=0;whiteSpace=wrap;html=1;fillStyle=hatch;fillColor=#030303;glass=0;shadow=0;" parent="_mD5evdsi9IKHYTAy_Ms-20" vertex="1">
          <mxGeometry width="60" height="30" as="geometry" />
        </mxCell>
        <mxCell id="_mD5evdsi9IKHYTAy_Ms-22" value="" style="rounded=0;whiteSpace=wrap;html=1;fillStyle=cross-hatch;fillColor=#030303;" parent="_mD5evdsi9IKHYTAy_Ms-20" vertex="1">
          <mxGeometry x="60" width="60" height="30" as="geometry" />
        </mxCell>
        <mxCell id="_mD5evdsi9IKHYTAy_Ms-23" value="&lt;b style=&quot;border-color: var(--border-color); color: rgb(8, 8, 8); font-family: Helvetica; font-size: 14px; font-style: normal; font-variant-ligatures: normal; font-variant-caps: normal; letter-spacing: normal; orphans: 2; text-align: center; text-indent: 0px; text-transform: none; widows: 2; word-spacing: 0px; -webkit-text-stroke-width: 0px; text-decoration-thickness: initial; text-decoration-style: initial; text-decoration-color: initial; background-color: rgb(255, 255, 255);&quot;&gt;data&lt;/b&gt;" style="text;html=1;strokeColor=none;fillColor=none;align=center;verticalAlign=middle;whiteSpace=wrap;rounded=0;" parent="_mD5evdsi9IKHYTAy_Ms-20" vertex="1">
          <mxGeometry x="30" width="60" height="30" as="geometry" />
        </mxCell>
        <mxCell id="_mD5evdsi9IKHYTAy_Ms-24" value="" style="group" parent="1" vertex="1" connectable="0">
          <mxGeometry x="365" y="370" width="120" height="30" as="geometry" />
        </mxCell>
        <mxCell id="_mD5evdsi9IKHYTAy_Ms-25" value="" style="rounded=0;whiteSpace=wrap;html=1;fillStyle=hatch;fillColor=#030303;glass=0;shadow=0;" parent="_mD5evdsi9IKHYTAy_Ms-24" vertex="1">
          <mxGeometry width="60" height="30" as="geometry" />
        </mxCell>
        <mxCell id="_mD5evdsi9IKHYTAy_Ms-26" value="" style="rounded=0;whiteSpace=wrap;html=1;fillStyle=cross-hatch;fillColor=#030303;" parent="_mD5evdsi9IKHYTAy_Ms-24" vertex="1">
          <mxGeometry x="60" width="60" height="30" as="geometry" />
        </mxCell>
        <mxCell id="_mD5evdsi9IKHYTAy_Ms-27" value="&lt;b style=&quot;border-color: var(--border-color); color: rgb(8, 8, 8); font-family: Helvetica; font-size: 14px; font-style: normal; font-variant-ligatures: normal; font-variant-caps: normal; letter-spacing: normal; orphans: 2; text-align: center; text-indent: 0px; text-transform: none; widows: 2; word-spacing: 0px; -webkit-text-stroke-width: 0px; text-decoration-thickness: initial; text-decoration-style: initial; text-decoration-color: initial; background-color: rgb(255, 255, 255);&quot;&gt;bss&lt;/b&gt;" style="text;html=1;strokeColor=none;fillColor=none;align=center;verticalAlign=middle;whiteSpace=wrap;rounded=0;" parent="_mD5evdsi9IKHYTAy_Ms-24" vertex="1">
          <mxGeometry x="30" width="60" height="30" as="geometry" />
        </mxCell>
        <mxCell id="_mD5evdsi9IKHYTAy_Ms-29" value="" style="rounded=0;whiteSpace=wrap;html=1;fillStyle=hatch;fillColor=#030303;glass=0;shadow=0;" parent="1" vertex="1">
          <mxGeometry x="220" y="550" width="30" height="30" as="geometry" />
        </mxCell>
        <mxCell id="_mD5evdsi9IKHYTAy_Ms-30" value="" style="rounded=0;whiteSpace=wrap;html=1;fillStyle=cross-hatch;fillColor=#030303;" parent="1" vertex="1">
          <mxGeometry x="410" y="550" width="30" height="30" as="geometry" />
        </mxCell>
        <mxCell id="_mD5evdsi9IKHYTAy_Ms-33" value="&lt;font style=&quot;font-size: 14px;&quot;&gt;Espaço de Kernel&lt;/font&gt;" style="text;html=1;strokeColor=none;fillColor=none;align=left;verticalAlign=middle;whiteSpace=wrap;rounded=0;" parent="1" vertex="1">
          <mxGeometry x="253" y="550" width="120" height="30" as="geometry" />
        </mxCell>
        <mxCell id="_mD5evdsi9IKHYTAy_Ms-34" value="&lt;font style=&quot;font-size: 14px;&quot;&gt;Espaço de Usuário&lt;/font&gt;" style="text;html=1;strokeColor=none;fillColor=none;align=left;verticalAlign=middle;whiteSpace=wrap;rounded=0;" parent="1" vertex="1">
          <mxGeometry x="443" y="550" width="131" height="30" as="geometry" />
        </mxCell>
      </root>
    </mxGraphModel>
  </diagram>
</mxfile>
